<?xml version="1.0" encoding="UTF-8"?>
<svg id="Layer_1" data-name="Layer 1" xmlns="http://www.w3.org/2000/svg" viewBox="0 0 416.18 451.28">
  <defs>
    <style>
      .cls-1 {
        fill: #fff;
      }
    </style>
  </defs>
  <g>
    <path class="cls-1" d="m231.38,102.22c-19.47.06-36.12-7.37-44.98-24.11-12.85-24.85-5.87-64.87,23.62-74.59,10.47-3.92,24.36-4.63,35.88-1.83,6.73,1.87,14.21,4,17.34,9.94,2.55,5.34-.5,12.43-6.35,13.68-1.88.42-3.99-.02-6.34-1.34-5.65-3.41-11.76-4.77-18.33-4.79-27.43-1.2-33.61,28.45-25.45,49.21,6.89,16.59,29.34,17.94,43.78,10.01,8.09-5.03,16.55,3.8,13.11,11.77-6.11,9.76-21.28,11.59-32.29,12.05Z"/>
    <path class="cls-1" d="m308.93,102.22c-21.99.81-40.09-13.54-39.34-36.1-1.07-26.1,25.87-42.8,49.14-33.49,13.24,5.22,19.5,18.74,19.25,32.78-.03,3.96-2.74,5.34-6.63,5.36,0,0-44.13,0-44.13,0v-11h35.39l-2.26,1.97c.62-26.19-32.69-21.83-30.88,2.68-.39,14.08,5.6,22.11,19.88,22,4.91-.02,11.23-1.27,15.93-3.52,2.26-1.03,4.18-1.36,5.78-.99,7.48,1.66,6.92,12.15.42,15.09-6.39,3.77-15.31,5.18-22.56,5.22Z"/>
    <path class="cls-1" d="m360.96,101.94c-6.67.01-10.64-3.92-10.57-10.72,0,0,0-80.23,0-80.23-.07-6.94,3.84-10.7,10.57-10.72,7,0,10.74,3.64,10.72,10.72,0,0,0,49.35,0,49.35h.28l20.44-22.7c4.22-4.68,6.23-7.17,12.69-7.19,8.38-.47,11.94,8.31,6.34,14.24,0,0-21.57,23.83-21.57,23.83v-8.04s23.97,27.64,23.97,27.64c5.48,6.11.6,14.23-7.05,13.82-6.58,0-9.43-2.31-13.54-7.19,0,0-21.29-23.83-21.29-23.83h-.28v20.3c0,7.14-3.57,10.72-10.72,10.72Z"/>
  </g>
  <g>
    <path class="cls-1" d="m52.2,221.53C21.61,222.77-.93,201.18.03,170.77c-.02-14.57,4.17-27.6,13.96-37.58,17.17-16.66,47.77-18.08,68.81-6.7,10.12,5.35,2.24,22.97-8.46,16.64-10.74-5.98-27.55-7.12-38-1.27-10.26,6.01-13.38,16.53-13.47,28.91-1.13,31.69,26.41,37.45,51.47,28.48l-4.09,9.02v-27.21c-4.29-.4-16.09,1.39-19.18-2.11-2.95-2.52-3.07-9.12,0-11.63,3.35-3.91,23.83-1.35,28.48-2.04,2.82,0,4.98.75,6.49,2.26,4.45,2.92,1.42,34.56,2.26,39.2-.03,4.81-1.62,8.27-6.2,9.87-8.82,3.14-20.22,4.97-29.89,4.93Z"/>
    <path class="cls-1" d="m141.59,221.53c-21.99.81-40.09-13.54-39.34-36.09-1.07-26.1,25.87-42.81,49.14-33.49,13.24,5.22,19.5,18.74,19.25,32.78-.03,3.96-2.74,5.34-6.63,5.36,0,0-44.13,0-44.13,0v-11h35.39l-2.26,1.97c.62-26.2-32.69-21.82-30.88,2.68-.39,14.08,5.6,22.11,19.88,21.99,4.91-.02,11.23-1.27,15.93-3.52,2.26-1.03,4.18-1.36,5.78-.99,7.48,1.66,6.92,12.15.42,15.09-6.39,3.77-15.31,5.18-22.56,5.22Z"/>
    <path class="cls-1" d="m176.84,246.63c-7.78,1.11-12.83-7.67-7.76-13.32,7.02-4.39,14.31-.03,14.66-12.76,0,0,0-60.07,0-60.07-1.09-10.28,12.35-13.81,18.61-7.97,5.44,2.54,1.6,60.7,2.68,65.92.8,17.81-10.62,28.2-28.2,28.2Zm17.48-108.29c-16.32.96-16.46-22.46,0-21.43,16.31-1.16,16.17,22.53,0,21.43Z"/>
    <path class="cls-1" d="m245.09,221.53c-18.89,1.19-34.45-18.17-22.56-34.26,10.14-9.6,28.18-7.94,43.71-8.32v11c-8.22.35-19.33-1.25-25.24,3.45-3.08,2.89-2.38,8.67.78,11.35,8.5,6.87,23.16-.62,22.07-12.12-.57-5.51,1.85-21.25-2.82-24.89-6.94-5.04-19.29-2.09-27.64,1.34-7.64,3.78-13.22-5.42-9.02-11.56,12.72-11.08,48.68-12.06,56.33,4.94,2.3,4.42,3.45,10.01,3.45,16.78-1.04,5.87,2.51,35.14-2.61,39.27-3.17,3.71-11.54,3.63-14.67,0-2.97-2.57-2.68-9.11-2.61-13.18l.99.99c-1.66,9.69-10.47,15.43-20.16,15.23Z"/>
    <path class="cls-1" d="m325.17,221.53c-17.63-.04-24.93-10.14-24.96-27.64,1.15-5.29-2.95-69.31,2.82-71.63,6.55-5.65,19.57-2.37,18.47,8.04,1.06,5.87-2.64,68.09,2.47,71.28,4.01,5.43,11.14.08,13.96,3.81,3.04,10.75-.37,17-12.76,16.14Z"/>
    <path class="cls-1" d="m370.71,221.53c-18.89,1.19-34.45-18.17-22.56-34.26,10.14-9.6,28.18-7.94,43.71-8.32v11c-8.22.35-19.33-1.25-25.24,3.45-3.08,2.89-2.38,8.67.78,11.35,8.5,6.87,23.16-.62,22.06-12.12-.57-5.51,1.84-21.25-2.82-24.89-6.94-5.04-19.29-2.09-27.64,1.34-7.64,3.78-13.22-5.42-9.02-11.56,12.72-11.08,48.68-12.06,56.33,4.94,2.3,4.42,3.46,10.01,3.46,16.78-1.04,5.87,2.51,35.13-2.61,39.27-3.17,3.71-11.54,3.63-14.67,0-2.97-2.57-2.68-9.11-2.61-13.18l.99.99c-1.66,9.69-10.47,15.43-20.16,15.23Z"/>
  </g>
  <g>
    <path class="cls-1" d="m87.29,450.02c-12.22.13-12.31-18.91,0-18.64,12-.68,11.92,19.18,0,18.64Z"/>
    <path class="cls-1" d="m141.74,450.75c-3.28.04-5.17-2.19-5.15-5.4,0,0,0-165.06,0-165.06-.57-5.11,5.75-6.96,8.95-4.05.9.9,1.35,2.25,1.35,4.05v165.06c-.02,3.31-1.61,5.44-5.15,5.4Z"/>
    <path class="cls-1" d="m262.4,451.24c-65.86,1.93-87.05-72.13-70.39-125.45,12.66-47.99,71.09-64.83,110.98-40.71,25.83,16.54,35.12,45.37,35.2,77.38,1.46,46.6-25.99,90.27-75.79,88.78Zm0-10.06c44.29,1.33,66.13-36.77,64.75-78.48.11-44.85-19.19-78.1-64.75-78.24-26.33-.08-46.54,11.96-56.9,35.93-18.96,46.5-4.94,123.55,56.9,120.79Z"/>
  </g>
</svg>