<?xml version="1.0" encoding="UTF-8"?>
<svg id="Layer_1" data-name="Layer 1" xmlns="http://www.w3.org/2000/svg" viewBox="0 0 1200 500">
  <defs>
    <style>
      .cls-1 {
        fill: #231f20;
      }
    </style>
  </defs>
  <g>
    <path class="cls-1" d="m402.36,215.75c-17.25,0-32.09-3.39-44.53-10.19-12.44-6.79-21.94-16.44-28.5-28.96-6.56-12.51-9.84-27.16-9.84-43.95,0-12.51,1.87-23.88,5.61-34.11,3.74-10.22,9.19-19,16.37-26.33,7.17-7.33,15.91-12.89,26.21-16.71,10.3-3.81,21.86-5.72,34.68-5.72,7.93,0,15.8.91,23.58,2.75,7.78,1.83,14.57,4.5,20.37,8.01,3.82,2.29,6.41,5,7.78,8.13,1.37,3.13,1.79,6.26,1.26,9.39-.54,3.13-1.83,5.88-3.89,8.24-2.06,2.37-4.62,3.89-7.67,4.58-3.05.69-6.49-.04-10.3-2.17-4.58-2.75-9.35-4.73-14.31-5.95-4.96-1.22-10.11-1.83-15.45-1.83-10.23,0-18.81,2.02-25.75,6.07-6.95,4.05-12.13,9.84-15.57,17.4-3.43,7.55-5.15,16.98-5.15,28.27s1.72,20.38,5.15,28.16c3.43,7.78,8.62,13.7,15.57,17.74,6.94,4.04,15.53,6.07,25.75,6.07,4.88,0,9.88-.61,15-1.83,5.11-1.22,10.03-3.13,14.76-5.72,3.97-1.98,7.48-2.71,10.53-2.18,3.05.54,5.61,1.91,7.67,4.12,2.06,2.21,3.39,4.89,4.01,8.01.61,3.13.31,6.18-.91,9.16-1.22,2.98-3.51,5.53-6.87,7.67-5.8,3.82-12.74,6.75-20.83,8.81-8.09,2.06-16.33,3.09-24.72,3.09Z"/>
    <path class="cls-1" d="m528.27,215.75c-13.28,0-24.69-2.36-34.23-7.1-9.54-4.73-16.86-11.48-21.98-20.26-5.12-8.77-7.67-19.19-7.67-31.25s2.48-21.71,7.44-30.33c4.96-8.62,11.79-15.45,20.49-20.49,8.7-5.04,18.54-7.56,29.53-7.56,8.39,0,15.83,1.34,22.32,4.01,6.49,2.67,12.1,6.49,16.83,11.45,4.73,4.96,8.32,10.99,10.76,18.08,2.44,7.1,3.66,14.99,3.66,23.69,0,2.9-.91,5.08-2.74,6.52-1.83,1.45-4.5,2.18-8.01,2.18h-71.65v-17.86h57.46l-3.67,3.21c0-6.26-.91-11.48-2.74-15.68-1.83-4.2-4.47-7.4-7.9-9.62-3.44-2.21-7.67-3.32-12.71-3.32-5.65,0-10.45,1.3-14.42,3.89-3.97,2.6-7.02,6.37-9.16,11.33-2.14,4.96-3.2,10.87-3.2,17.74v1.83c0,11.6,2.67,20.15,8.01,25.64,5.34,5.49,13.43,8.24,24.27,8.24,3.66,0,7.82-.46,12.48-1.37,4.65-.92,9.12-2.37,13.39-4.35,3.66-1.68,6.79-2.21,9.39-1.6,2.59.61,4.69,1.87,6.3,3.78,1.6,1.91,2.48,4.16,2.63,6.75.15,2.6-.42,5.15-1.72,7.67-1.3,2.52-3.47,4.62-6.52,6.3-5.34,3.05-11.3,5.23-17.86,6.52-6.56,1.3-12.82,1.95-18.77,1.95Z"/>
    <path class="cls-1" d="m612.75,215.29c-5.34,0-9.54-1.49-12.59-4.46-3.05-2.98-4.58-7.29-4.58-12.93V67.63c0-5.8,1.52-10.15,4.58-13.05,3.05-2.9,7.25-4.35,12.59-4.35,5.64,0,9.96,1.45,12.93,4.35,2.98,2.9,4.47,7.25,4.47,13.05v80.12h.46l33.19-36.86c3.36-3.97,6.41-6.9,9.16-8.81,2.75-1.91,6.56-2.86,11.45-2.86s8.55,1.22,10.99,3.66c2.44,2.44,3.7,5.38,3.78,8.81.07,3.43-1.41,6.98-4.47,10.65l-35.03,38.69v-13.05l38.92,44.87c2.9,3.66,4.16,7.25,3.78,10.76-.38,3.51-1.98,6.33-4.81,8.47-2.83,2.14-6.3,3.2-10.42,3.2-5.19,0-9.35-.95-12.48-2.86-3.13-1.91-6.3-4.84-9.5-8.81l-34.57-38.69h-.46v32.97c0,11.6-5.8,17.4-17.4,17.4Z"/>
  </g>
  <g>
    <path class="cls-1" d="m111.44,409.46c-18.16,0-33.5-3.39-46.01-10.19-12.52-6.79-22.09-16.37-28.73-28.73-6.64-12.36-9.96-26.86-9.96-43.49,0-12.82,1.95-24.34,5.84-34.57,3.89-10.22,9.5-19.04,16.83-26.44,7.32-7.4,16.33-13.01,27.01-16.83,10.68-3.81,22.74-5.72,36.17-5.72,8.24,0,16.48.84,24.72,2.52,8.24,1.68,16.18,4.73,23.81,9.16,3.2,1.99,5.38,4.39,6.52,7.21s1.45,5.76.91,8.81c-.54,3.05-1.76,5.76-3.66,8.13-1.91,2.37-4.35,3.93-7.33,4.69-2.98.76-6.37.15-10.19-1.83-5.04-2.75-10.42-4.81-16.14-6.18-5.72-1.37-11.87-2.06-18.43-2.06-10.84,0-19.88,2.06-27.13,6.18-7.25,4.12-12.71,10.11-16.37,17.97-3.66,7.86-5.49,17.51-5.49,28.96,0,17.25,4.16,30.3,12.48,39.15,8.32,8.85,20.64,13.28,36.97,13.28,5.34,0,10.95-.57,16.83-1.72,5.87-1.14,11.64-2.63,17.28-4.47l-6.64,14.65v-44.18h-20.6c-4.58,0-8.09-1.14-10.53-3.43-2.44-2.29-3.66-5.49-3.66-9.62s1.22-7.06,3.66-9.27c2.44-2.21,5.95-3.32,10.53-3.32h35.71c4.58,0,8.09,1.22,10.53,3.66,2.44,2.44,3.66,5.88,3.66,10.3v53.34c0,4.12-.8,7.52-2.4,10.19-1.6,2.67-4.16,4.62-7.67,5.84-6.87,2.44-14.58,4.39-23.12,5.84-8.55,1.45-17.02,2.17-25.41,2.17Z"/>
    <path class="cls-1" d="m256.58,409.46c-13.28,0-24.69-2.36-34.23-7.1-9.54-4.73-16.86-11.48-21.98-20.26-5.12-8.77-7.67-19.19-7.67-31.25s2.48-21.71,7.44-30.33c4.96-8.62,11.79-15.45,20.49-20.49,8.7-5.04,18.54-7.56,29.53-7.56,8.39,0,15.83,1.34,22.32,4.01,6.49,2.67,12.09,6.49,16.83,11.45,4.73,4.96,8.32,10.99,10.76,18.08,2.44,7.1,3.66,14.99,3.66,23.69,0,2.9-.91,5.08-2.75,6.52-1.83,1.45-4.5,2.18-8.01,2.18h-71.65v-17.86h57.46l-3.66,3.21c0-6.26-.91-11.48-2.75-15.68-1.83-4.19-4.47-7.4-7.9-9.62-3.43-2.21-7.67-3.32-12.71-3.32-5.65,0-10.46,1.3-14.42,3.89-3.97,2.6-7.02,6.37-9.16,11.33-2.14,4.96-3.2,10.88-3.2,17.74v1.83c0,11.6,2.67,20.15,8.01,25.64,5.34,5.49,13.43,8.24,24.27,8.24,3.66,0,7.82-.46,12.48-1.37,4.65-.91,9.12-2.37,13.39-4.35,3.66-1.68,6.79-2.21,9.39-1.6,2.59.61,4.69,1.87,6.3,3.78,1.6,1.91,2.48,4.16,2.63,6.75.15,2.6-.42,5.15-1.72,7.67-1.3,2.52-3.47,4.62-6.52,6.3-5.34,3.05-11.3,5.23-17.86,6.52-6.56,1.29-12.82,1.94-18.77,1.94Z"/>
    <path class="cls-1" d="m313.81,450.21c-4.12.15-7.4-.54-9.84-2.06-2.44-1.53-4.12-3.47-5.04-5.84-.92-2.37-1.18-4.81-.8-7.32.38-2.52,1.41-4.66,3.09-6.41,1.68-1.76,3.97-2.71,6.87-2.86,5.95-.61,10.26-2.29,12.93-5.04,2.67-2.75,4.01-7.02,4.01-12.82v-97.52c0-5.64,1.52-9.96,4.58-12.93,3.05-2.98,7.33-4.47,12.82-4.47s9.92,1.49,12.82,4.47c2.9,2.97,4.35,7.29,4.35,12.93v94.09c0,10.07-1.64,18.39-4.92,24.95-3.28,6.56-8.28,11.56-14.99,15-6.72,3.43-15.34,5.38-25.87,5.84Zm28.39-175.82c-6.26,0-11.14-1.52-14.65-4.58-3.51-3.05-5.27-7.4-5.27-13.05s1.75-9.73,5.27-12.71c3.51-2.98,8.39-4.46,14.65-4.46s11.29,1.49,14.65,4.46c3.35,2.98,5.04,7.21,5.04,12.71s-1.68,10-5.04,13.05c-3.36,3.05-8.24,4.58-14.65,4.58Z"/>
    <path class="cls-1" d="m424.61,409.46c-8.55,0-16.03-1.56-22.44-4.69-6.41-3.13-11.45-7.4-15.11-12.82-3.66-5.42-5.49-11.64-5.49-18.66,0-8.24,2.14-14.73,6.41-19.46,4.27-4.73,11.18-8.16,20.72-10.3,9.54-2.14,22.24-3.2,38.12-3.2h12.13v17.86h-11.9c-7.94,0-14.23.42-18.89,1.26-4.66.84-8.05,2.29-10.19,4.35-2.14,2.06-3.2,4.77-3.2,8.12,0,4.12,1.49,7.56,4.46,10.3,2.98,2.75,7.21,4.12,12.71,4.12,4.42,0,8.39-.99,11.9-2.97,3.51-1.98,6.26-4.73,8.24-8.24,1.98-3.51,2.98-7.7,2.98-12.59v-26.1c0-6.72-1.53-11.48-4.58-14.31-3.05-2.82-8.32-4.24-15.8-4.24-3.97,0-8.36.46-13.16,1.37-4.81.91-10.11,2.6-15.91,5.04-3.51,1.37-6.52,1.68-9.04.91-2.52-.76-4.46-2.25-5.84-4.46s-2.06-4.69-2.06-7.44.76-5.34,2.29-7.78c1.52-2.44,4.12-4.27,7.78-5.49,7.02-2.75,13.7-4.69,20.03-5.84,6.33-1.14,12.09-1.72,17.28-1.72,11.75,0,21.48,1.72,29.19,5.15,7.71,3.44,13.43,8.74,17.17,15.91,3.74,7.18,5.61,16.26,5.61,27.24v50.82c0,5.65-1.41,9.96-4.23,12.93-2.83,2.98-6.75,4.47-11.79,4.47s-9.2-1.49-12.02-4.47c-2.83-2.97-4.23-7.29-4.23-12.93v-8.47l1.6,1.6c-.91,5.04-2.86,9.39-5.84,13.05-2.98,3.67-6.72,6.52-11.22,8.59-4.5,2.06-9.73,3.09-15.68,3.09Z"/>
    <path class="cls-1" d="m554.64,409.46c-13.58,0-23.73-3.74-30.45-11.22-6.72-7.47-10.07-18.69-10.07-33.65v-103.25c0-5.8,1.52-10.15,4.58-13.05,3.05-2.9,7.25-4.35,12.59-4.35,5.64,0,9.96,1.45,12.93,4.35,2.98,2.9,4.46,7.25,4.46,13.05v101.87c0,6.26,1.34,10.88,4.01,13.85,2.67,2.98,6.22,4.47,10.65,4.47,1.22,0,2.4-.08,3.55-.23,1.15-.15,2.25-.3,3.32-.46,2.44-.15,4.16.65,5.15,2.41.99,1.76,1.49,5.3,1.49,10.64,0,4.43-.91,7.86-2.75,10.3-1.83,2.44-4.66,3.97-8.47,4.58-1.37.15-3.05.3-5.04.46-1.99.15-3.97.23-5.95.23Z"/>
    <path class="cls-1" d="m628.59,409.46c-8.55,0-16.02-1.56-22.43-4.69-6.41-3.13-11.45-7.4-15.11-12.82-3.66-5.42-5.49-11.64-5.49-18.66,0-8.24,2.14-14.73,6.41-19.46,4.27-4.73,11.18-8.16,20.72-10.3,9.53-2.14,22.24-3.2,38.11-3.2h12.13v17.86h-11.9c-7.94,0-14.23.42-18.89,1.26-4.66.84-8.05,2.29-10.19,4.35-2.14,2.06-3.21,4.77-3.21,8.12,0,4.12,1.49,7.56,4.47,10.3,2.97,2.75,7.21,4.12,12.7,4.12,4.42,0,8.39-.99,11.9-2.97,3.51-1.98,6.25-4.73,8.24-8.24,1.98-3.51,2.98-7.7,2.98-12.59v-26.1c0-6.72-1.53-11.48-4.58-14.31-3.06-2.82-8.32-4.24-15.8-4.24-3.97,0-8.36.46-13.16,1.37-4.81.91-10.11,2.6-15.91,5.04-3.51,1.37-6.52,1.68-9.04.91-2.52-.76-4.46-2.25-5.84-4.46-1.37-2.21-2.06-4.69-2.06-7.44s.76-5.34,2.29-7.78c1.52-2.44,4.12-4.27,7.78-5.49,7.02-2.75,13.7-4.69,20.03-5.84,6.33-1.14,12.09-1.72,17.28-1.72,11.75,0,21.48,1.72,29.19,5.15,7.7,3.44,13.43,8.74,17.17,15.91,3.74,7.18,5.61,16.26,5.61,27.24v50.82c0,5.65-1.41,9.96-4.24,12.93-2.83,2.98-6.75,4.47-11.79,4.47s-9.2-1.49-12.02-4.47c-2.82-2.97-4.24-7.29-4.24-12.93v-8.47l1.6,1.6c-.91,5.04-2.86,9.39-5.84,13.05-2.98,3.67-6.72,6.52-11.22,8.59-4.5,2.06-9.73,3.09-15.68,3.09Z"/>
  </g>
  <g>
    <path class="cls-1" d="m748.02,399.25c-4.44,0-8.18-1.52-11.23-4.57-3.05-3.05-4.57-6.79-4.57-11.23,0-4.71,1.52-8.52,4.57-11.43,3.05-2.91,6.79-4.37,11.23-4.37,4.71,0,8.45,1.46,11.22,4.37,2.77,2.91,4.16,6.72,4.16,11.43,0,4.44-1.39,8.18-4.16,11.23-2.77,3.05-6.51,4.57-11.22,4.57Z"/>
    <path class="cls-1" d="m840.3,400.5c-2.77,0-4.92-.83-6.45-2.49-1.52-1.66-2.29-3.88-2.29-6.65V111.6c0-3.05.76-5.33,2.29-6.86,1.52-1.52,3.67-2.29,6.45-2.29s4.92.77,6.44,2.29c1.52,1.53,2.29,3.81,2.29,6.86v279.75c0,2.77-.69,4.99-2.08,6.65-1.39,1.66-3.61,2.49-6.65,2.49Z"/>
    <path class="cls-1" d="m1044.81,401.33c-26.33,0-49.05-6.09-68.17-18.29-19.12-12.19-33.88-29.51-44.27-51.96-10.39-22.45-15.59-49.05-15.59-79.81,0-23.28,2.91-44.13,8.73-62.56,5.82-18.43,14.27-34.09,25.36-46.97,11.08-12.89,24.52-22.79,40.32-29.72,15.8-6.92,33.67-10.39,53.62-10.39,26.6,0,49.53,6.03,68.8,18.08,19.26,12.05,34.02,29.24,44.27,51.55,10.25,22.31,15.38,48.84,15.38,79.6,0,23.28-2.98,44.2-8.94,62.77-5.96,18.57-14.48,34.36-25.56,47.39-11.09,13.03-24.53,23.01-40.32,29.93-15.79,6.93-33.67,10.39-53.62,10.39Zm0-17.04c23.28,0,43.09-5.19,59.44-15.59,16.35-10.39,28.82-25.49,37.41-45.31,8.59-19.81,12.89-43.86,12.89-72.12,0-42.12-9.5-74.75-28.47-97.89-18.99-23.14-46.08-34.71-81.27-34.71-23,0-42.68,5.19-59.03,15.59-16.36,10.39-28.82,25.5-37.41,45.31-8.59,19.82-12.89,43.72-12.89,71.71,0,41.85,9.56,74.48,28.68,97.89,19.12,23.42,46,35.13,80.64,35.13Z"/>
  </g>
</svg>